<svg version="1.1" id="Layer_1" xmlns="http://www.w3.org/2000/svg" xmlns:xlink="http://www.w3.org/1999/xlink" x="0px" y="0px"
	 width="100%" viewBox="0 0 848 848" enable-background="new 0 0 848 784" xml:space="preserve">
<path fill="#000000" opacity="1.000000" stroke="none" 
	d="
M1.000000,607.464661 
	C5.440584,604.409363 10.210453,603.694763 15.344714,603.705872 
	C69.842125,603.824280 124.339836,603.808716 178.837463,603.795959 
	C181.068619,603.795471 183.481735,604.333313 186.032578,602.185608 
	C126.328262,529.147705 98.331116,445.877228 107.095802,351.678101 
	C113.672241,280.997223 140.913574,218.440628 188.302597,165.560120 
	C241.660309,106.019272 308.208496,70.665451 388.119598,60.393982 
	C388.342865,63.743156 386.747559,64.365845 385.296570,65.182755 
	C360.753723,79.000328 340.347900,97.687317 321.967834,118.805511 
	C303.616516,139.890671 288.157501,162.847763 276.371796,188.230911 
	C268.242157,205.739944 262.262451,223.929260 257.802063,242.739502 
	C252.525848,264.990295 250.084595,287.524994 250.269623,310.258820 
	C250.412445,327.806671 252.429855,345.245117 255.964890,362.566864 
	C266.272552,413.074310 288.791809,457.453278 322.749420,495.885712 
	C351.491272,528.415039 386.189941,553.006409 426.539978,569.381287 
	C441.756317,575.556335 457.330322,580.441956 473.392883,584.057373 
	C489.118469,587.596985 504.982605,589.413147 520.989563,590.609619 
	C525.022034,590.910950 526.160706,589.434814 526.116028,585.548218 
	C525.955322,571.550964 526.241394,557.548462 526.067322,543.551514 
	C525.779419,520.395752 527.199890,497.249268 526.205750,474.081482 
	C525.993713,469.140503 524.449524,466.807739 519.719849,465.898499 
	C508.837128,463.806396 497.922211,461.909424 487.132141,459.292633 
	C457.396729,452.081299 429.403046,441.218262 406.408020,420.306915 
	C385.690613,401.466736 372.066437,378.410461 366.358917,350.723022 
	C365.429871,346.216217 365.222382,341.544495 363.665009,337.136444 
	C362.310455,333.302368 363.819336,331.760010 367.964996,331.660095 
	C389.080322,331.151184 409.392151,335.242401 429.557098,341.141388 
	C445.511169,345.808594 460.391113,352.449066 474.003662,361.895386 
	C497.841461,378.437622 515.084412,399.941223 523.447571,428.096130 
	C523.983398,429.900146 523.982849,432.117065 525.798157,433.502014 
	C527.345825,432.608124 526.742676,431.117126 526.741760,429.939941 
	C526.718872,401.108765 526.686707,372.277405 526.542908,343.446625 
	C526.505371,335.923096 525.682739,335.939514 518.276917,334.930328 
	C501.242676,332.609070 485.080444,327.509491 470.220093,318.506836 
	C447.511902,304.749756 432.792206,284.962555 425.413483,259.677002 
	C422.439026,249.484131 421.286133,238.945190 421.062500,228.284836 
	C420.842743,217.806747 420.745880,207.264114 419.455719,196.891525 
	C418.548157,189.594696 416.557129,182.272400 412.378540,175.845901 
	C409.095215,170.796249 406.875824,165.169739 405.444916,159.392883 
	C403.663940,152.202789 405.261047,145.315155 410.325623,139.835831 
	C420.371521,128.967270 432.499908,123.880966 447.573975,127.747009 
	C449.505157,126.333069 448.879364,123.838280 449.561462,121.885178 
	C455.244293,105.612953 467.635406,96.331001 482.745300,90.198357 
	C504.980652,81.173683 528.165222,80.507805 551.789551,82.548698 
	C567.295715,83.888275 582.322571,86.538551 596.648254,92.617226 
	C609.421875,98.037331 620.781189,105.385796 628.327942,117.476242 
	C629.715698,119.699562 631.736816,119.532562 633.848999,120.032921 
	C649.960754,123.849731 664.858887,129.856125 671.898621,146.437881 
	C675.244751,154.319565 673.851013,162.563751 669.448242,169.831543 
	C664.030334,178.775024 660.311218,188.373627 658.811584,198.560501 
	C657.485046,207.571014 657.599915,216.797043 657.138855,225.930969 
	C655.852661,251.414169 650.910706,275.680237 634.185120,296.125549 
	C621.963867,311.064758 606.692810,321.704834 588.585510,328.149597 
	C577.979004,331.924683 567.120300,334.908447 555.714844,335.144287 
	C551.533508,335.230743 550.179382,337.378998 550.200439,341.567200 
	C550.351440,371.556061 550.281128,401.546082 550.281128,431.845886 
	C554.622375,419.648956 559.503967,407.942291 566.714905,397.367950 
	C581.958069,375.014862 603.221802,360.346191 627.686890,349.872345 
	C643.797119,342.975342 660.798157,339.240295 678.091064,337.029999 
	C684.489807,336.212158 691.070129,336.820038 697.567566,336.767822 
	C700.394470,336.745087 700.665588,338.403168 700.531372,340.750031 
	C699.726379,354.825348 695.917419,368.211639 690.763855,381.175934 
	C683.496338,399.458160 673.381042,415.946014 658.531982,429.224731 
	C645.752625,440.652649 631.143982,449.169830 615.712463,456.382111 
	C596.686035,465.274567 576.541992,470.701508 556.156128,475.337311 
	C550.208435,476.689819 549.042542,478.019623 549.042419,484.107910 
	C549.041931,517.439819 549.045898,550.771667 549.066040,584.103577 
	C549.069946,590.612183 549.103577,590.222046 555.609192,590.185730 
	C568.300415,590.114929 580.781128,588.000244 593.022461,585.382324 
	C616.703247,580.318115 639.748291,572.908203 661.639099,562.327942 
	C682.994019,552.006653 702.985291,539.526123 721.200378,524.273804 
	C721.804810,523.767700 722.608521,523.499573 723.263794,523.150085 
	C725.781738,524.846436 724.155151,526.431824 723.455017,527.995972 
	C715.885620,544.906738 706.664490,560.871582 695.858643,575.913940 
	C689.656128,584.548279 683.338501,593.099915 676.164917,602.933044 
	C734.108765,602.933044 791.086670,602.933044 848.532288,602.966553 
	C849.000000,609.687622 849.000000,616.375305 848.533447,623.580933 
	C820.079346,624.565002 792.091614,624.150940 764.094788,624.837769 
	C729.446777,625.687805 694.767456,625.300476 660.101562,625.326477 
	C656.348328,625.329285 653.483948,626.329346 650.770447,629.026794 
	C639.402649,640.327209 626.577759,649.864014 613.394043,658.898193 
	C591.632202,673.810547 568.229675,685.618713 543.601318,694.997498 
	C529.664062,700.305054 515.381226,704.663696 500.855377,707.906982 
	C488.596039,710.644104 476.113708,713.119507 463.619995,713.864685 
	C450.854431,714.626099 438.084198,716.971985 425.249176,715.698120 
	C406.782806,713.865417 388.194916,713.828186 369.869354,709.698853 
	C356.447113,706.674316 343.139069,703.423096 330.067780,699.237976 
	C322.363831,696.771484 314.895782,693.568237 307.062256,690.598022 
	C303.108337,700.432800 299.347473,709.968323 295.444183,719.445129 
	C291.547729,728.905273 286.481689,732.239685 276.361206,732.267761 
	C274.027954,732.274292 271.692810,732.313721 269.361694,732.239502 
	C263.407074,732.049988 258.552307,728.187500 256.941528,722.470337 
	C251.340225,702.589844 247.316254,682.352722 243.988861,662.002563 
	C243.155182,656.903992 241.050995,653.382751 237.416824,650.265259 
	C229.580338,643.542847 221.719193,636.861938 214.449509,629.492737 
	C211.338135,626.338806 210.684082,623.261719 211.910080,619.140442 
	C218.801056,595.975708 225.540497,572.765869 232.349335,549.576599 
	C232.900345,547.700073 233.299545,545.670837 236.201233,544.506958 
	C237.572159,551.046082 238.899445,557.395325 240.235046,563.742737 
	C241.666534,570.546082 242.663177,577.439148 244.006439,584.240723 
	C245.575027,592.183167 246.567429,600.218140 248.274460,608.127014 
	C249.811188,615.246765 250.484756,622.522766 251.799713,629.650818 
	C253.482224,638.771240 254.819763,647.932495 256.392639,657.060120 
	C257.628967,664.234924 258.426422,671.495544 259.884979,678.591614 
	C261.482300,686.362610 263.039856,694.125000 264.363647,701.949158 
	C265.132751,706.494690 266.211029,711.049927 267.771362,715.376770 
	C268.744904,718.076538 271.175079,719.932617 274.462952,719.626221 
	C278.983948,719.205078 280.979645,715.794861 282.357117,712.200928 
	C284.011292,707.884949 285.051666,703.337585 286.464020,698.924377 
	C292.617340,679.697388 298.676910,660.438416 305.073578,641.292297 
	C306.827087,636.043762 307.986206,630.494629 310.850006,625.637573 
	C313.372864,626.064087 313.700684,627.883667 314.361694,629.599182 
	C318.123383,639.362671 322.155914,649.008911 327.215729,658.192627 
	C331.498169,665.965393 336.299438,666.625549 342.546448,660.281006 
	C348.858185,653.870728 355.322235,647.602173 361.433411,641.006470 
	C364.163300,638.060181 367.044800,636.845459 371.039703,636.868896 
	C394.038605,637.004211 417.038849,636.903259 440.038452,636.958069 
	C443.403992,636.966064 446.673523,636.601318 449.916504,635.764038 
	C454.170654,634.665710 456.666473,631.755920 456.572937,627.567749 
	C456.474152,623.143677 453.732361,620.061829 449.219055,619.383240 
	C444.784943,618.716553 440.277527,618.212036 435.801331,618.204407 
	C410.646881,618.161743 385.485657,617.493652 360.342102,619.050110 
	C356.725861,619.273926 354.133636,620.501526 351.551086,622.890625 
	C346.955536,627.142029 342.036102,631.043274 336.972504,635.327576 
	C335.685364,634.146057 334.914917,631.036987 333.739197,628.180237 
	C328.372314,615.139771 323.125580,602.048828 317.628326,589.063782 
	C316.282166,585.884155 313.571167,583.295227 309.916351,583.733398 
	C306.391296,584.156067 304.366913,586.974060 303.243896,590.407166 
	C295.982666,612.605042 288.393036,634.693909 281.689362,657.076965 
	C280.683533,660.435242 280.818146,664.682739 276.966278,667.519409 
	C272.940338,657.535706 273.218658,647.116577 271.019470,637.212769 
	C269.268158,629.325928 269.193176,621.067383 267.449371,613.178223 
	C264.164703,598.318054 263.302551,583.083374 259.872192,568.250061 
	C257.644989,558.619263 256.417938,548.759705 254.278534,539.105530 
	C251.389740,526.069580 248.019928,513.140930 244.930573,500.148590 
	C243.848618,495.598358 241.782700,491.989014 236.701981,491.448303 
	C232.703705,491.022827 228.742325,494.604340 227.329651,499.665466 
	C223.948669,511.778412 220.792603,523.956360 217.257324,536.023560 
	C212.276138,553.026306 206.866058,569.904236 201.964203,586.929077 
	C198.799103,597.921997 194.959579,608.701965 191.852417,619.681641 
	C190.690735,623.786743 189.862869,625.495850 185.382324,625.483459 
	C128.050003,625.324341 70.717209,625.317078 13.384565,625.345886 
	C8.655031,625.348267 4.542726,624.119080 1.000000,621.000000 
	C1.000000,616.643127 1.000000,612.286194 1.000000,607.464661 
M507.073486,275.217560 
	C509.206696,287.969727 512.761414,300.162018 520.857117,310.590363 
	C515.762695,292.197327 515.193787,273.571350 518.006836,254.876587 
	C522.065796,227.901993 536.355347,207.590118 560.357727,194.959641 
	C578.149780,185.597122 594.287537,174.680267 606.166260,158.192856 
	C607.124817,156.862427 608.523254,155.797668 608.686890,153.981079 
	C609.614929,143.675461 608.442566,133.992538 600.285156,126.489136 
	C594.153564,120.849113 586.796021,117.478462 578.882385,115.156326 
	C569.304871,112.345932 559.442810,111.264000 549.627991,109.674149 
	C533.329224,107.033989 517.436829,108.278969 501.753265,112.300491 
	C490.213104,115.259575 479.743683,120.686226 475.275635,132.901901 
	C472.767059,139.760391 474.678101,147.103043 474.237823,154.208344 
	C473.994385,158.137650 475.195374,161.636292 477.659851,164.361450 
	C484.127197,171.512939 490.372345,179.047180 498.326904,184.552780 
	C506.237854,190.028183 514.841614,194.493698 523.024353,199.590378 
	C525.763062,201.296173 529.104675,202.378647 530.736328,205.495560 
	C530.174255,207.369324 528.625427,208.205200 527.457275,209.340988 
	C517.048584,219.461090 511.989838,232.469070 508.504120,246.038803 
	C506.145142,255.222122 506.308807,264.818085 507.073486,275.217560 
z"/>
<path fill="#000000" opacity="1.000000" stroke="none" 
	d="
M590.671509,145.760468 
	C591.634155,157.569626 584.738159,164.929077 576.743103,171.065781 
	C557.761719,185.635178 536.678040,188.245560 514.196045,180.483597 
	C507.701111,178.241226 501.614746,175.252258 496.827759,170.131561 
	C483.556274,155.934906 482.073608,135.938141 505.684387,127.214821 
	C519.503174,122.109291 533.872681,120.432816 548.294373,122.161057 
	C558.698181,123.407806 569.255798,125.313034 578.464844,131.324509 
	C583.931519,134.893051 588.329590,139.139130 590.671509,145.760468 
M534.053955,158.068756 
	C544.182922,160.481461 561.439209,157.604660 565.190491,153.144318 
	C550.940613,144.582794 536.425903,141.535599 521.268982,152.847260 
	C525.045349,155.990219 529.223022,156.835022 534.053955,158.068756 
z"/>
</svg>
